<svg xmlns="http://www.w3.org/2000/svg" height="48" viewBox="0 -960 960 960" width="48"><path d="M480.003-285.153q107.676-86.103 163.048-165.296 55.373-79.192 55.373-150.615 0-61.808-22.52-104.334-22.519-42.525-55.316-69.175-32.796-26.649-70.911-38.904-38.115-12.254-69.717-12.254-31.601 0-69.752 12.254-38.151 12.255-70.893 38.867-32.742 26.613-54.894 69.168-22.152 42.555-22.152 104.366 0 71.425 55.052 150.621 55.053 79.195 162.682 165.302Zm.133 44.768q-6.541 0-13.516-2.5t-12.351-7.692q-79.192-61.269-157.519-151.446-78.326-90.177-78.326-199.284 0-66.178 23.48-116.258 23.481-50.079 61.012-83.93 37.532-33.851 84.545-50.966 47.013-17.115 92.519-17.115 45.505 0 92.539 17.115 47.033 17.115 84.565 51 37.531 33.885 61.358 83.944 23.827 50.059 23.827 116.21 0 109.075-78.673 199.225-78.673 90.15-157.173 151.505-5.795 5.192-12.77 7.692-6.976 2.5-13.517 2.5Zm.069-305.346q25.795 0 43.929-17.993 18.135-17.994 18.135-43.788 0-25.795-18.137-43.93-18.138-18.134-44.135-18.134-25.997 0-43.785 18.137-17.788 18.137-17.788 44.134t17.993 43.786q17.993 17.788 43.788 17.788ZM240-91.116q-9.529 0-15.553-6.08-6.023-6.08-6.023-15.692t6.023-15.843q6.024-6.23 15.553-6.23h480q9.529 0 15.899 6.426 6.37 6.426 6.37 16.038t-6.37 15.496q-6.37 5.885-15.899 5.885H240Zm240-510.191Z"/></svg>