<svg width="23" height="18" viewBox="0 0 23 18" fill="none" xmlns="http://www.w3.org/2000/svg">
<path d="M12.4688 0.678465C12.7688 0.378511 13.1757 0.210007 13.6 0.210007C14.0243 0.210007 14.4312 0.378511 14.7312 0.678465L21.9312 7.87847C22.2312 8.17851 22.3997 8.5854 22.3997 9.00967C22.3997 9.43393 22.2312 9.84082 21.9312 10.1409L14.7312 17.3409C14.4294 17.6323 14.0253 17.7936 13.6058 17.7899C13.1862 17.7863 12.7849 17.618 12.4883 17.3214C12.1916 17.0247 12.0234 16.6234 12.0197 16.2039C12.0161 15.7844 12.1773 15.3802 12.4688 15.0785L16.8 10.6097H1.6C1.17565 10.6097 0.768687 10.4411 0.468629 10.141C0.168571 9.84098 0 9.43401 0 9.00967C0 8.58532 0.168571 8.17835 0.468629 7.87829C0.768687 7.57824 1.17565 7.40967 1.6 7.40967H16.8L12.4688 2.94087C12.1688 2.64082 12.0003 2.23393 12.0003 1.80966C12.0003 1.3854 12.1688 0.978509 12.4688 0.678465Z" fill="white"/>
</svg>
