
<svg xmlns="http://www.w3.org/2000/svg" version="1.0" preserveAspectRatio="xMidYMid meet" viewBox="265.2 216.34 480 617.86">

<g transform="translate(0.000000,1024.000000) scale(0.100000,-0.100000)" fill="#000000" stroke="none">
<path d="M5155 8074 c-120 -10 -302 -36 -406 -59 -62 -14 -114 -25 -116 -25 -1 0 -3 -49 -3 -109 l0 -110 578 -4 c549 -3 581 -4 652 -24 211 -59 366 -149 500 -290 85 -88 131 -152 175 -243 52 -110 52 -110 -52 -110 l-88 0 -40 72 c-48 87 -175 220 -263 276 -81 52 -192 98 -289 119 -68 15 -146 18 -623 18 l-545 0 -3 -107 -3 -107 -117 -3 -117 -3 -3 -152 -3 -153 130 0 129 0 47 65 c79 112 202 191 340 220 83 17 648 21 736 5 85 -16 196 -76 258 -138 65 -67 118 -172 127 -254 l7 -58 445 0 445 0 -7 49 c-8 60 -54 198 -91 271 -156 310 -474 587 -833 725 -108 41 -293 88 -442 110 -102 15 -424 27 -525 19z"/>
<path d="M4252 7800 c-80 -49 -75 -172 9 -216 54 -28 129 -10 163 38 20 29 20 100 1 138 -30 58 -112 77 -173 40z"/>
<path d="M3819 7538 c-233 -173 -526 -493 -688 -750 l-64 -102 24 -15 c13 -9 61 -44 107 -79 46 -34 87 -60 92 -57 4 2 26 36 49 74 23 39 69 105 102 148 63 80 198 223 210 223 4 0 32 -22 61 -49 l54 -50 75 70 c84 79 201 161 302 210 l68 34 -3 85 -3 85 -122 3 -123 3 0 129 c0 72 -4 130 -9 130 -5 0 -64 -41 -132 -92z"/>
<path d="M5325 7126 c-94 -44 -147 -131 -147 -242 0 -104 57 -190 156 -235 47 -21 143 -24 193 -6 154 57 223 231 146 368 -70 126 -220 175 -348 115z"/>
<path d="M4462 6889 c-204 -24 -393 -145 -551 -352 -65 -85 -142 -228 -155 -287 -6 -27 -14 -18 163 -161 l73 -60 39 78 c83 169 225 317 374 388 49 24 109 49 133 56 l42 12 -2 166 c-3 191 8 175 -116 160z"/>
<path d="M3604 6703 c-81 -97 -154 -212 -223 -349 -60 -121 -81 -179 -111 -315 l-17 -76 100 -74 c55 -41 104 -75 107 -77 4 -1 10 32 14 75 24 262 143 543 304 715 l45 48 -24 19 c-13 10 -46 37 -74 60 -27 22 -53 41 -57 41 -4 0 -33 -30 -64 -67z"/>
<path d="M6144 6725 c-1 -5 -10 -37 -19 -70 -19 -68 -56 -145 -92 -193 l-25 -34 35 -36 c43 -46 343 -446 426 -569 115 -171 145 -265 144 -448 0 -83 -7 -150 -21 -217 -26 -119 -91 -294 -136 -368 -19 -30 -33 -57 -31 -58 5 -6 130 65 188 106 342 241 551 576 634 1015 24 127 24 408 0 532 -19 100 -81 303 -101 330 -11 15 -55 17 -505 18 -322 1 -495 -1 -497 -8z"/>
<path d="M2924 6413 c-209 -451 -299 -950 -265 -1473 22 -325 63 -537 160 -820 116 -339 277 -630 516 -927 58 -73 115 -137 125 -143 20 -11 20 1 20 1243 l0 1253 -127 101 -128 101 -6 -486 c-3 -268 -7 -574 -8 -679 l-1 -193 -91 0 -90 0 4 738 c4 799 2 770 63 968 14 49 43 123 62 164 20 41 36 78 36 82 1 6 -211 168 -220 168 -3 0 -25 -44 -50 -97z"/>
<path d="M4444 6278 c-111 -73 -231 -229 -283 -371 -28 -77 -51 -213 -51 -303 l0 -74 120 0 120 0 5 28 c31 145 108 287 212 391 l73 73 -34 47 c-47 64 -72 116 -87 184 -8 31 -16 57 -20 57 -3 0 -28 -14 -55 -32z"/>
<path d="M5808 6226 c-147 -155 -221 -258 -295 -411 -76 -158 -86 -214 -91 -499 -5 -292 2 -335 76 -486 26 -52 49 -99 51 -104 2 -5 -21 4 -50 20 -71 38 -156 125 -196 199 -56 107 -63 148 -63 365 l0 195 -74 68 -75 67 -36 -43 c-96 -109 -152 -298 -142 -472 10 -161 48 -268 142 -400 85 -120 159 -177 348 -270 244 -119 334 -200 423 -380 87 -176 86 -173 94 -815 7 -619 7 -615 71 -743 75 -153 189 -285 317 -369 82 -54 306 -164 437 -217 l80 -31 314 2 313 3 -108 44 c-250 102 -585 275 -764 394 -195 131 -312 296 -354 499 -13 64 -16 156 -16 539 0 423 -2 469 -20 560 -48 237 -139 409 -315 600 -121 130 -170 196 -210 281 -46 98 -65 176 -65 270 l0 78 118 0 c295 0 557 103 736 288 l38 40 -68 99 c-177 254 -521 714 -532 712 -4 -1 -42 -38 -84 -83z"/>
<path d="M3660 4587 c0 -1635 -4 -1551 75 -1714 37 -75 62 -110 136 -188 50 -52 123 -119 163 -149 94 -70 284 -184 421 -250 175 -86 461 -192 570 -212 l40 -7 -50 54 c-122 130 -190 244 -241 399 -26 79 -28 100 -33 310 l-6 225 -195 5 -195 5 -3 558 -2 557 -116 0 -115 0 3 -492 c3 -481 4 -494 25 -552 28 -72 89 -169 140 -218 48 -47 135 -99 213 -128 l60 -22 0 -94 c0 -52 -3 -94 -6 -94 -23 0 -131 38 -188 66 -215 108 -351 277 -406 507 -19 79 -20 123 -20 1378 l0 1297 -120 96 c-66 53 -127 99 -135 102 -13 5 -15 -165 -15 -1439z"/>
<path d="M4765 5892 c-60 -45 -132 -133 -173 -210 -55 -103 -59 -143 -66 -559 l-6 -383 105 0 105 0 0 290 c0 420 21 502 178 687 l44 53 -35 39 c-20 22 -46 58 -59 80 -13 23 -27 41 -33 41 -5 0 -32 -17 -60 -38z"/>
<path d="M4149 5333 c-59 -36 -79 -121 -41 -172 50 -68 134 -77 191 -21 39 40 46 82 21 136 -29 67 -111 94 -171 57z"/>
<path d="M4117 4924 c-4 -4 -7 -130 -7 -281 l0 -273 115 0 115 0 -2 278 -3 277 -106 3 c-58 1 -108 -1 -112 -4z"/>
<path d="M4920 4322 l0 -272 190 0 190 0 0 -75 0 -75 206 0 206 0 -7 28 c-10 41 -59 123 -106 176 -55 62 -149 128 -245 172 -197 88 -272 139 -373 251 l-61 68 0 -273z"/>
<path d="M4585 4543 l-60 -4 -1 -439 -1 -440 198 0 199 0 0 -469 c0 -509 3 -543 56 -676 52 -130 171 -283 272 -350 23 -15 44 -26 46 -24 2 2 6 156 8 341 4 283 2 338 -10 343 -7 3 -52 5 -98 5 l-84 0 0 515 0 515 -187 2 -188 3 -2 340 -2 340 -43 1 c-24 0 -70 -1 -103 -3z"/>
<path d="M5294 3711 c-28 -17 -64 -73 -64 -100 0 -32 36 -93 65 -111 38 -24 73 -25 120 -6 85 36 88 178 4 222 -38 19 -88 18 -125 -5z"/>
<path d="M5591 3705 c-84 -71 -50 -208 56 -222 105 -14 179 101 120 188 -43 64 -122 79 -176 34z"/>
<path d="M4553 3470 c-51 -30 -66 -62 -61 -122 4 -42 11 -57 36 -79 110 -99 269 32 192 158 -37 61 -108 79 -167 43z"/>
<path d="M5290 3160 l0 -140 100 0 100 0 2 -532 3 -533 75 -11 c146 -23 318 -35 555 -40 l240 -6 -113 65 c-143 83 -202 129 -302 234 -86 91 -147 189 -182 293 -21 61 -22 86 -26 438 l-4 372 -224 0 -224 0 0 -140z"/>
</g>
</svg>