<?xml version="1.0" standalone="no"?>
<!DOCTYPE svg PUBLIC "-//W3C//DTD SVG 20010904//EN"
 "http://www.w3.org/TR/2001/REC-SVG-20010904/DTD/svg10.dtd">
<svg version="1.0" xmlns="http://www.w3.org/2000/svg"
 width="385.000000pt" height="533.000000pt" viewBox="0 0 385.000000 533.000000"
 preserveAspectRatio="xMidYMid meet">
<metadata>
Created by potrace 1.10, written by Peter Selinger 2001-2011
</metadata>
<g transform="translate(0.000000,533.000000) scale(0.050000,-0.050000)"
fill="#000000" stroke="none">
<path d="M2834 10146 c-61 -185 -161 -493 -221 -686 -167 -534 -289 -925 -303
-975 l-13 -45 759 0 758 0 -297 925 c-163 509 -308 966 -323 1015 l-25 90
-112 6 -112 6 -111 -336z"/>
<path d="M800 5480 l0 -3201 365 6 c201 3 363 12 360 20 -3 8 -5 1446 -5 3195
l0 3180 -360 0 -360 0 0 -3200z"/>
<path d="M4888 8385 c1 -513 -120 -932 -385 -1335 -89 -135 -431 -510 -466
-510 -9 0 -17 284 -17 630 l0 630 -73 0 c-176 0 -379 -176 -446 -388 -21 -67
-39 -104 -40 -81 -2 70 -110 217 -195 264 l-81 45 -11 -65 c-7 -36 -10 -393
-8 -795 l4 -730 -71 -33 c-62 -29 -336 -108 -503 -145 l-54 -12 -6 795 c-7
969 -27 1035 -339 1128 -111 33 -106 80 -108 -963 l-2 -958 462 -490 c253
-269 708 -749 1010 -1066 1032 -1084 1184 -1303 1262 -1816 13 -88 27 -171 31
-185 5 -19 101 -25 390 -25 l384 0 -12 195 c-47 808 -626 1702 -1640 2535
-227 186 -219 167 -99 230 722 378 1341 1122 1602 1923 121 372 146 540 158
1062 l10 455 -379 0 -379 0 1 -295z"/>
<path d="M2100 3475 l0 -1329 45 -68 c48 -71 155 -121 310 -147 l85 -15 0
1205 0 1204 -74 83 c-40 45 -139 152 -220 239 l-146 156 0 -1328z"/>
<path d="M3168 2756 l2 -884 110 5 c603 28 740 132 739 561 l0 272 -95 112
c-119 141 -727 806 -745 814 -7 3 -12 -393 -11 -880z"/>
</g>
</svg>
