<svg xmlns="http://www.w3.org/2000/svg" height="48" viewBox="0 -960 960 960" width="48"><path d="M159.148-182.771q-22.606 0-39.338-16.732-16.732-16.731-16.732-39.345v-482.304q0-22.614 16.732-39.345 16.732-16.732 39.338-16.732h641.704q22.606 0 39.338 16.732 16.732 16.731 16.732 39.345v482.304q0 22.614-16.732 39.345-16.732 16.732-39.338 16.732H159.148Zm653.929-512.922L495.885-485.655q-4 2.193-7.981 3.693t-7.904 1.5q-3.923 0-7.904-1.5t-6.904-3.693L146.923-695.693v456.769q0 5.385 3.462 8.846 3.462 3.462 8.847 3.462h641.536q5.385 0 8.847-3.462 3.462-3.461 3.462-8.846v-456.769ZM480-521.308l323.769-212.076H157.231L480-521.308ZM146.923-695.693v6.885-29.933.788-15.431 15.076-1.047 30.616-6.921 469.044-469.077Z"/></svg>