<svg xmlns="http://www.w3.org/2000/svg" height="48" viewBox="0 -960 960 960" width="48"><path d="M772.614-143.078q-104.845 0-217.018-53.481-112.173-53.48-208.461-150.865-97.288-96.384-150.672-208.114-53.385-111.731-53.385-217.268 0-18.726 12.55-31.421 12.549-12.695 31.373-12.695h111.971q15.643 0 26.355 10.039 10.711 10.038 14.904 26.192l23.851 105.948q1.571 14.512-1.516 26.639-3.087 12.127-11.228 19.889l-93.223 91.369q26.577 45.923 56.226 84.927 29.649 39.005 64.082 72.881 37.077 38.769 78.885 70.188 41.808 31.42 90.077 57.696l91.137-93.384q9.44-10.5 21.153-14.346t24.556-1.654l95.961 20.99q16.345 3.202 26.537 16.006 10.193 12.804 10.193 29.004v107.537q0 18.824-12.66 31.373-12.659 12.55-31.648 12.55ZM236.039-576.461l82.538-80.077q1.347-1.538 1.924-4.231.577-2.692.384-5l-22.346-101.153q-.385-3.077-2.5-4.616-2.116-1.539-5.193-1.539h-98.038q-2.5 0-3.942 1.539-1.443 1.539-1.443 3.846.539 41.308 12.423 88.539 11.885 47.231 36.193 102.692Zm353.23 346.076q39.807 20.154 88.807 31.385 48.999 11.231 89.616 12.461 2.307 0 3.846-1.538 1.539-1.539 1.539-3.847v-98.153q0-3.077-1.539-5.193-1.539-2.115-4.616-2.5l-90.076-19.192q-2.308-.192-4.039.385-1.73.577-3.654 1.923l-79.884 84.269Zm-353.23-346.076Zm353.23 346.076Z"/></svg>